<svg width="400" height="80" viewBox="0 0 400 80" xmlns="http://www.w3.org/2000/svg">
  <!-- Backboard -->
  <rect x="150" y="5" width="100" height="25" fill="#f8f9fa" stroke="#dc2626" stroke-width="2" rx="3"/>
  <rect x="155" y="10" width="90" height="15" fill="none" stroke="#dc2626" stroke-width="1.5" rx="2"/>
  
  <!-- Hoop Support -->
  <rect x="198" y="30" width="4" height="15" fill="#6b7280" rx="2"/>
  
  <!-- Basketball Rim -->
  <ellipse cx="200" cy="50" rx="50" ry="8" fill="#ff6b00" stroke="#bf360c" stroke-width="2"/>
  <ellipse cx="200" cy="50" rx="45" ry="6" fill="#ff8c00" stroke="#d84315" stroke-width="1"/>
  
  <!-- Net strands -->
  <g stroke="#e5e7eb" stroke-width="1" fill="none" opacity="0.8">
    <!-- Outer strands -->
    <path d="M160 50 L165 75" stroke-linecap="round"/>
    <path d="M170 50 L172 75" stroke-linecap="round"/>
    <path d="M180 50 L180 75" stroke-linecap="round"/>
    <path d="M190 50 L188 75" stroke-linecap="round"/>
    <path d="M200 50 L200 75" stroke-linecap="round"/>
    <path d="M210 50 L212 75" stroke-linecap="round"/>
    <path d="M220 50 L220 75" stroke-linecap="round"/>
    <path d="M230 50 L228 75" stroke-linecap="round"/>
    <path d="M240 50 L235 75" stroke-linecap="round"/>
    
    <!-- Cross connections -->
    <path d="M165 60 L235 60" stroke-width="0.5" opacity="0.6"/>
    <path d="M172 65 L228 65" stroke-width="0.5" opacity="0.6"/>
    <path d="M180 70 L220 70" stroke-width="0.5" opacity="0.6"/>
  </g>
  
  <!-- Glow effect -->
  <ellipse cx="200" cy="50" rx="55" ry="12" fill="url(#glowGradient)" opacity="0.3"/>
  
  <defs>
    <radialGradient id="glowGradient" cx="50%" cy="50%" r="50%">
      <stop offset="0%" style="stop-color:#fbbf24;stop-opacity:0.6"/>
      <stop offset="100%" style="stop-color:#fbbf24;stop-opacity:0"/>
    </radialGradient>
  </defs>
</svg>